<?xml version="1.0" standalone="no"?>
<!DOCTYPE svg PUBLIC "-//W3C//DTD SVG 20010904//EN"
 "http://www.w3.org/TR/2001/REC-SVG-20010904/DTD/svg10.dtd">
<svg version="1.0" xmlns="http://www.w3.org/2000/svg"
 width="1200.000000pt" height="1200.000000pt" viewBox="0 0 1200.000000 1200.000000"
 preserveAspectRatio="xMidYMid meet">
<metadata>
Created by potrace 1.14, written by Peter Selinger 2001-2017
</metadata>
<g transform="translate(0.000000,1200.000000) scale(0.100000,-0.100000)"
fill="#000000" stroke="none">
<path d="M4520 9764 c-36 -7 -76 -15 -90 -18 -14 -2 -61 -14 -105 -26 -44 -12
-84 -23 -90 -24 -32 -7 -55 -18 -51 -24 2 -4 -18 -8 -46 -9 -79 -4 -208 -56
-393 -161 -27 -15 -95 -52 -150 -82 -223 -119 -435 -280 -522 -398 -15 -20
-30 -39 -34 -42 -7 -6 -51 -100 -57 -120 -9 -36 -10 -145 0 -169 74 -189 121
-255 323 -465 70 -72 134 -157 154 -202 16 -36 147 -226 196 -284 25 -30 52
-62 59 -70 18 -22 120 -113 142 -127 65 -43 102 -57 151 -57 46 0 57 4 86 32
65 63 94 196 91 419 -1 154 -9 267 -28 418 -3 28 -8 73 -11 100 -3 28 -7 70
-10 95 -10 86 -12 285 -4 350 24 178 99 335 227 476 18 20 22 37 22 86 0 107
-55 180 -145 195 -45 7 -30 18 38 28 27 3 57 8 66 10 22 4 113 16 161 22 19 2
89 5 155 7 141 4 223 -10 305 -53 32 -17 60 -28 63 -25 2 3 42 6 87 8 89 4
176 -12 242 -44 23 -11 45 -20 49 -20 4 0 30 -14 58 -31 27 -17 65 -33 83 -34
130 -13 223 -85 290 -224 51 -108 63 -172 49 -256 -10 -57 -9 -67 9 -98 29
-49 40 -90 46 -177 l5 -75 -29 50 c-46 78 -109 100 -158 54 -27 -26 -51 -91
-50 -138 1 -31 5 -36 36 -44 37 -9 144 -5 172 8 16 6 17 2 11 -36 -8 -56 -7
-274 1 -314 25 -123 56 -185 90 -185 37 0 150 125 224 247 93 154 104 338 28
482 -14 27 -23 51 -20 55 2 3 1 4 -2 2 -4 -3 -23 16 -43 42 -21 26 -55 63 -77
81 -21 19 -38 39 -36 44 1 5 -2 6 -7 3 -5 -3 -14 1 -21 9 -7 8 -16 15 -20 15
-19 0 -90 55 -90 70 0 35 -32 139 -64 205 -52 108 -154 204 -257 240 -21 8
-81 34 -131 59 -125 61 -208 81 -348 85 -114 3 -149 7 -264 35 -72 18 -272 18
-366 0z"/>
<path d="M4777 8936 c-43 -16 -102 -53 -141 -89 -37 -34 -33 -43 7 -14 44 33
68 45 167 83 80 31 82 33 45 33 -22 0 -57 -6 -78 -13z"/>
<path d="M5817 8904 c23 -8 56 -31 73 -50 34 -39 37 -37 14 11 -18 38 -32 46
-89 51 l-40 3 42 -15z"/>
<path d="M4812 8822 c-71 -27 -228 -192 -183 -192 5 0 26 -7 47 -17 51 -21 91
-27 194 -27 105 1 170 7 170 17 0 4 6 7 14 7 18 0 3 71 -24 115 -62 97 -133
129 -218 97z"/>
<path d="M5753 8103 c-4 -1 -33 -7 -64 -13 -99 -19 -163 -97 -183 -221 -8 -51
34 -90 102 -97 60 -5 82 5 96 48 14 43 37 57 73 44 38 -13 42 -58 10 -97 -18
-24 -31 -29 -72 -32 -28 -1 -62 1 -77 6 -26 7 -26 6 -17 -19 22 -58 98 -94
192 -91 71 2 126 18 162 47 57 46 63 75 24 120 -16 18 -29 37 -29 42 0 18 22
21 45 6 22 -15 25 -15 33 2 41 85 -32 213 -137 242 -34 9 -140 18 -158 13z"/>
<path d="M4482 7964 c-12 -8 -22 -23 -22 -32 0 -11 3 -13 8 -6 22 33 84 39
121 10 12 -9 13 -8 7 3 -8 12 -66 41 -83 41 -5 0 -19 -7 -31 -16z"/>
<path d="M4534 7859 c1 -26 4 -45 9 -42 4 2 7 -2 8 -9 4 -70 98 -277 162 -356
136 -169 301 -243 505 -228 81 6 200 35 267 65 22 10 61 26 87 37 27 10 48 22
48 27 0 4 6 7 13 7 8 0 58 28 111 61 110 69 120 69 166 2 21 -31 25 -48 25
-109 0 -69 1 -72 20 -62 11 6 39 31 63 56 72 74 113 187 114 314 3 190 -11
223 -29 71 -13 -106 -35 -182 -65 -225 -21 -30 -48 -37 -48 -13 0 22 -80 98
-116 111 -28 10 -36 8 -95 -33 -144 -99 -310 -168 -474 -197 -38 -7 -161 -8
-201 -2 -56 9 -158 47 -215 82 -81 49 -219 189 -219 222 0 5 -7 15 -16 23 -25
20 -97 176 -88 191 4 7 3 10 -1 5 -5 -4 -14 5 -20 20 -12 27 -12 26 -11 -18z"/>
<path d="M6110 7810 c0 -5 5 -10 11 -10 5 0 7 5 4 10 -3 6 -8 10 -11 10 -2 0
-4 -4 -4 -10z"/>
<path d="M5192 7751 c-18 -11 -12 -45 8 -48 28 -5 43 12 31 36 -13 23 -19 25
-39 12z"/>
<path d="M5370 7715 c0 -8 5 -15 10 -15 6 0 10 7 10 15 0 8 -4 15 -10 15 -5 0
-10 -7 -10 -15z"/>
<path d="M3392 7628 c-85 -132 -188 -326 -270 -508 -41 -91 -123 -315 -121
-330 0 -3 -5 -18 -11 -35 -7 -16 -13 -38 -15 -48 -2 -9 -11 -45 -20 -80 -23
-88 -33 -160 -40 -282 -3 -44 -7 -114 -9 -155 -11 -184 -59 -346 -206 -705
-79 -194 -136 -357 -162 -470 -26 -113 -29 -306 -5 -375 l15 -45 -2 80 c-3
100 17 229 52 325 3 8 6 20 7 25 8 36 70 179 151 350 21 44 38 82 39 85 0 3
13 31 28 63 15 32 27 60 27 62 0 2 11 28 24 57 76 164 133 381 141 531 10 188
16 283 21 322 9 68 55 265 86 365 16 52 33 109 38 125 18 67 120 340 161 432
11 23 19 44 19 48 0 6 24 61 61 140 50 107 48 111 -9 23z"/>
<path d="M5010 7646 c0 -19 27 -28 33 -11 7 15 -1 25 -20 25 -7 0 -13 -6 -13
-14z"/>
<path d="M5285 7630 c-8 -13 3 -30 20 -30 14 0 27 24 18 34 -10 9 -31 7 -38
-4z"/>
<path d="M5177 7593 c-12 -12 -7 -41 8 -47 8 -3 21 2 29 10 8 8 13 21 10 29
-6 15 -35 20 -47 8z"/>
<path d="M3613 7515 c3 -11 15 -55 26 -98 11 -43 22 -81 25 -85 3 -5 7 -19 10
-33 8 -38 15 -66 50 -199 13 -52 27 -108 30 -125 2 -16 9 -52 15 -80 6 -29 8
-122 5 -220 -5 -184 -5 -514 0 -555 2 -14 7 -65 11 -115 4 -49 9 -93 11 -96 2
-4 6 -25 9 -48 15 -115 70 -255 123 -309 41 -42 50 -41 17 2 -31 41 -65 133
-71 195 -3 26 -8 53 -10 61 -15 46 -19 299 -13 825 1 121 -1 231 -4 245 -4 14
-15 59 -26 100 -27 109 -76 246 -143 404 -54 130 -78 178 -65 131z"/>
<path d="M5053 7484 c-7 -19 11 -39 26 -30 16 10 13 33 -4 40 -9 3 -18 -1 -22
-10z"/>
<path d="M5396 7465 c4 -8 10 -12 15 -9 14 8 10 24 -6 24 -9 0 -12 -6 -9 -15z"/>
<path d="M5242 7444 c2 -11 11 -20 22 -22 13 -3 17 1 14 14 -2 11 -11 20 -22
22 -13 3 -17 -1 -14 -14z"/>
<path d="M7300 7317 c-74 -50 -224 -133 -253 -141 -27 -6 -41 13 -52 72 -5 25
-10 31 -18 23 -8 -8 -7 -45 2 -133 19 -180 24 -200 47 -191 11 4 13 16 9 50
-5 41 -2 48 27 76 49 48 140 128 183 162 73 58 105 87 105 96 0 14 -13 11 -50
-14z"/>
<path d="M7349 7273 c0 -44 -9 -176 -11 -193 -2 -8 2 -17 7 -18 26 -9 50 157
31 216 -10 31 -26 28 -27 -5z"/>
<path d="M5860 7264 c0 -6 -18 -21 -40 -34 -22 -14 -40 -28 -40 -31 0 -14
-108 -52 -160 -56 -60 -5 -157 22 -191 53 -29 26 -23 8 14 -41 19 -26 51 -52
80 -66 43 -20 52 -21 98 -11 28 7 69 23 92 37 50 29 164 141 154 151 -4 4 -7
3 -7 -2z"/>
<path d="M6687 7220 c-123 -62 -245 -182 -300 -295 -59 -120 -162 -210 -352
-305 -116 -58 -184 -115 -203 -169 -15 -42 1 -47 35 -13 23 24 133 79 133 67
0 -1 -44 -47 -98 -101 -70 -70 -107 -117 -128 -159 -27 -56 -29 -68 -28 -175
0 -86 4 -125 17 -154 21 -48 31 -40 33 28 6 156 57 287 154 394 73 80 90 101
130 164 22 33 56 72 77 87 42 31 163 157 163 170 0 9 35 51 42 51 3 0 8 -20
10 -44 7 -55 41 -127 69 -144 30 -19 33 -9 10 36 -15 29 -20 58 -20 106 1 36
4 64 9 61 4 -3 6 4 3 15 -11 42 92 171 217 270 24 19 51 42 60 50 8 9 32 28
53 44 20 16 37 32 37 37 0 19 -68 7 -123 -21z"/>
<path d="M6407 7118 c-27 -3 -70 -9 -95 -13 -133 -17 -202 -29 -202 -37 0 -5
3 -7 8 -5 9 6 100 15 232 23 79 4 109 10 123 23 16 16 16 17 0 17 -10 0 -40
-4 -66 -8z"/>
<path d="M7426 7075 c-22 -34 -20 -40 12 -43 69 -5 286 -57 422 -102 537 -174
929 -477 1193 -925 84 -142 199 -433 222 -560 2 -11 4 -20 5 -20 1 0 3 -7 5
-15 1 -8 7 -40 14 -70 12 -64 18 -98 26 -154 3 -23 8 -59 11 -81 3 -22 7 -137
8 -256 l3 -215 50 -47 c27 -26 62 -70 78 -98 52 -96 32 -225 -48 -311 -30 -33
-24 -35 18 -9 39 24 83 69 101 102 39 76 31 203 -20 315 -21 46 -27 77 -32
177 -3 67 -7 136 -10 152 -2 17 -8 68 -14 115 -6 47 -13 94 -15 105 -3 11 -7
38 -10 60 -13 93 -59 279 -101 404 -41 124 -125 330 -147 358 -5 7 -17 27 -26
45 -107 199 -262 392 -441 548 -41 36 -77 67 -80 70 -3 3 -22 16 -42 30 -20
13 -35 27 -33 31 2 3 -1 6 -8 6 -7 0 -39 19 -72 41 -82 55 -273 154 -370 192
-44 17 -89 35 -100 40 -80 36 -503 140 -569 140 -7 0 -21 -11 -30 -25z"/>
<path d="M6687 6990 c-9 -11 -14 -20 -12 -20 3 0 -1 -12 -8 -27 -8 -16 -15
-58 -16 -94 -3 -99 28 -159 105 -196 53 -26 112 -21 142 13 28 32 21 44 -25
44 -48 0 -95 24 -117 61 -18 31 -24 73 -25 182 -1 62 -13 72 -44 37z"/>
<path d="M4925 6943 c-161 -39 -300 -178 -451 -450 -28 -51 -53 -91 -55 -88
-3 2 -5 -4 -6 -13 0 -9 -21 -64 -45 -122 -44 -103 -95 -241 -103 -277 -2 -10
-13 -49 -24 -87 -41 -139 -93 -406 -80 -406 5 0 9 7 9 16 0 51 164 548 192
581 6 7 8 13 4 13 -8 0 109 255 124 270 3 3 14 23 25 45 65 133 236 351 302
385 15 8 30 17 33 21 15 16 85 40 124 41 62 3 91 -25 90 -85 -1 -58 -51 -139
-182 -292 -135 -159 -204 -264 -248 -383 -27 -69 -30 -81 -40 -142 -6 -32 -6
-97 -2 -142 3 -36 9 -9 13 58 3 60 17 116 42 174 3 8 7 17 8 20 0 3 13 28 28
55 61 112 98 161 249 327 151 166 201 247 200 327 0 62 -4 75 -32 109 -37 43
-107 61 -175 45z"/>
<path d="M7160 6919 c0 -6 25 -38 55 -71 64 -69 126 -158 149 -213 18 -42 26
-87 31 -178 8 -147 43 -253 99 -306 35 -33 44 -19 22 37 -31 81 -44 153 -50
271 -5 83 -13 133 -32 189 -14 42 -29 79 -32 82 -4 3 -15 17 -24 31 -27 43
-108 128 -143 149 -35 22 -75 27 -75 9z"/>
<path d="M7524 6643 c-46 -23 -53 -33 -45 -60 1 -2 9 5 19 15 9 9 33 29 52 44
44 35 39 35 -26 1z"/>
<path d="M7150 6459 c-57 -23 -80 -71 -41 -84 25 -8 153 -93 164 -109 13 -20
27 15 15 38 -6 11 -10 43 -9 71 1 28 -4 58 -12 69 -15 21 -82 30 -117 15z"/>
<path d="M5956 6252 c-2 -4 -11 -29 -19 -57 -8 -27 -38 -107 -66 -177 -76
-190 -95 -272 -95 -418 0 -119 24 -218 80 -333 31 -64 109 -194 124 -207 15
-13 161 -241 181 -283 27 -55 39 -60 33 -14 -12 77 -67 224 -144 376 -141 283
-166 372 -164 606 0 101 5 146 21 200 80 269 87 301 67 309 -8 3 -15 2 -18 -2z"/>
<path d="M7431 6087 c-17 -17 -13 -45 9 -67 32 -32 25 -63 -26 -109 -25 -24
-61 -49 -81 -57 -35 -15 -56 -16 -163 -11 -30 2 -76 -3 -101 -10 -49 -14 -96
-54 -84 -73 7 -12 69 -11 95 1 8 4 38 9 65 12 99 11 141 20 179 38 21 10 43
16 49 12 6 -3 7 -1 4 4 -4 6 8 20 26 30 71 42 181 227 140 234 -41 7 -104 4
-112 -4z"/>
<path d="M7626 6021 c-11 -17 55 -52 164 -87 118 -38 418 -243 540 -369 l55
-57 -51 31 c-28 17 -65 34 -83 37 -47 10 -40 -15 23 -92 30 -37 70 -96 90
-133 32 -62 93 -261 102 -339 3 -19 6 -38 9 -42 7 -12 19 -161 19 -240 -1
-169 -18 -285 -69 -470 -13 -48 -23 -105 -28 -165 -1 -11 5 -20 13 -22 24 -4
177 316 195 408 25 125 24 417 -1 599 -6 41 -63 220 -74 235 -5 6 -11 22 -13
35 -11 59 -21 88 -44 137 -26 54 -138 177 -213 234 -25 18 -47 36 -50 39 -3 3
-25 19 -50 35 -25 16 -63 43 -85 58 l-39 28 41 -2 c24 -2 45 0 49 3 11 11 -69
44 -136 57 -143 28 -290 65 -322 82 -22 11 -35 11 -42 0z"/>
<path d="M4147 5471 c-4 -17 -3 -21 5 -13 5 5 8 16 6 23 -3 8 -7 3 -11 -10z"/>
<path d="M6046 5323 c14 -74 33 -136 88 -285 44 -119 80 -260 111 -432 22
-123 47 -280 54 -348 1 -5 5 -8 10 -8 14 0 28 103 25 178 -4 84 -13 182 -18
191 -2 3 -7 35 -10 70 -4 35 -14 96 -22 135 -9 39 -18 81 -20 94 -12 63 -69
190 -168 375 -20 38 -36 75 -36 83 0 8 -6 14 -13 14 -12 0 -12 -11 -1 -67z"/>
<path d="M9510 5266 c0 -5 18 -30 40 -56 22 -26 40 -52 40 -58 0 -6 4 -12 9
-14 4 -1 37 -37 72 -78 98 -115 110 -128 165 -184 359 -358 721 -586 1179
-743 93 -31 268 -79 325 -89 14 -3 36 -7 50 -9 64 -13 77 -15 110 -20 80 -11
195 -23 240 -24 l25 -1 -30 -20 c-152 -103 -437 -124 -797 -59 -99 18 -141 26
-223 45 -11 3 -31 7 -45 10 -46 9 -344 95 -400 115 -30 11 -62 22 -70 24 -49
11 -380 132 -469 171 -30 14 -56 23 -58 20 -6 -5 390 -200 492 -241 50 -20
104 -43 120 -50 35 -15 167 -63 277 -99 88 -29 286 -80 373 -95 33 -6 69 -13
81 -15 26 -5 96 -14 194 -25 100 -11 348 -6 435 9 113 19 231 59 287 99 62 43
80 79 58 119 -30 54 -130 85 -380 117 -127 16 -166 22 -210 30 -14 3 -41 7
-60 10 -303 50 -616 164 -907 331 -91 52 -345 227 -383 263 -9 9 -36 32 -61
51 -92 72 -382 355 -451 440 -16 19 -28 30 -28 26z"/>
<path d="M4109 5149 c-1 -35 -3 -73 -4 -84 -2 -11 -6 -54 -9 -95 -4 -41 -9
-93 -11 -115 -2 -22 -6 -69 -9 -105 -4 -36 -8 -81 -11 -100 -2 -19 -7 -59 -10
-89 -4 -30 -8 -61 -10 -70 -2 -9 -6 -44 -10 -76 -4 -33 -9 -69 -11 -80 -3 -11
-7 -36 -9 -55 -6 -40 -13 -75 -15 -75 -1 0 -3 -11 -5 -25 -8 -59 -39 -177 -48
-187 -12 -11 -151 93 -232 173 -45 45 -93 100 -105 123 -13 22 -28 41 -32 41
-5 0 -6 -6 -1 -12 4 -7 8 -20 10 -28 1 -8 7 -16 12 -18 6 -2 11 -8 11 -13 0
-11 59 -104 100 -154 37 -47 128 -140 171 -175 17 -14 39 -32 48 -40 10 -8 24
-19 33 -25 201 -135 304 -195 395 -226 31 -10 55 -17 52 -15 -2 2 -58 44 -124
93 -66 50 -144 112 -172 138 -51 46 -53 48 -46 88 3 23 10 45 16 48 6 4 6 9
-1 13 -6 3 -6 22 -2 48 5 24 11 84 15 133 4 50 8 106 10 125 16 175 25 884 11
897 -3 4 -7 -23 -7 -58z"/>
<path d="M7239 5058 c-4 -63 -19 -129 -36 -157 -31 -50 -120 -126 -184 -157
-35 -18 -104 -46 -153 -63 -155 -55 -210 -90 -267 -171 -35 -49 -47 -90 -63
-207 -7 -56 18 -54 27 2 14 87 158 211 309 265 147 53 257 107 301 148 61 57
104 139 114 217 7 53 -7 114 -28 125 -14 8 -19 7 -20 -2z"/>
<path d="M8850 4906 c0 -3 7 -22 15 -42 8 -19 14 -36 15 -39 2 -12 15 -49 68
-185 73 -186 208 -456 297 -590 74 -113 200 -247 251 -268 30 -13 54 -47 54
-76 0 -26 -43 -67 -99 -95 -61 -31 -166 -67 -220 -76 -19 -3 -37 -8 -41 -10
-9 -6 0 -54 11 -60 14 -9 161 25 241 56 78 30 157 83 157 107 1 6 5 12 10 12
6 0 13 20 17 45 10 72 -27 142 -91 170 -78 34 -219 209 -360 449 -65 111 -110
194 -208 386 -113 221 -117 228 -117 216z"/>
<path d="M6790 4480 c0 -6 -3 -9 -7 -9 -24 4 -40 -6 -94 -58 -69 -66 -117
-141 -148 -232 -31 -89 -36 -130 -35 -259 1 -110 2 -115 41 -195 22 -45 49
-102 61 -127 11 -25 39 -69 61 -98 23 -28 41 -53 41 -56 0 -8 -141 35 -205 61
-163 69 -308 228 -334 368 -14 75 -7 162 16 193 55 75 188 71 208 -5 6 -26 30
-30 39 -7 21 55 -8 123 -61 141 -79 27 -231 -22 -281 -89 -7 -10 -18 -15 -24
-12 -7 4 -8 2 -4 -4 4 -6 0 -23 -9 -36 -40 -60 -51 -181 -25 -263 39 -122 146
-241 275 -305 111 -56 306 -123 387 -133 15 -2 53 -9 85 -14 193 -35 639 -28
840 13 102 21 203 59 203 76 0 16 -16 19 -57 9 -121 -27 -588 -42 -798 -26
-38 3 -82 6 -97 6 -25 1 -63 31 -106 85 -21 27 -81 159 -86 191 -3 17 -8 46
-11 65 -14 75 -21 139 -19 166 4 53 12 119 19 152 16 72 -43 11 -74 -78 -19
-53 -33 -76 -27 -44 2 11 7 39 11 63 16 96 77 237 141 324 20 28 39 45 46 41
6 -4 8 -3 4 4 -3 6 7 25 24 42 34 34 37 45 15 54 -8 3 -15 1 -15 -4z"/>
<path d="M2525 4391 c-19 -19 -330 -201 -342 -201 -7 0 -13 -3 -13 -8 0 -7
-215 -118 -315 -163 -27 -12 -109 -41 -182 -65 -128 -42 -315 -121 -321 -136
-2 -5 -8 -8 -13 -8 -22 0 -214 -131 -312 -213 -16 -14 -53 -28 -90 -36 -34 -6
-73 -14 -87 -17 -14 -3 -45 -9 -70 -13 -25 -5 -99 -21 -165 -36 -460 -105
-677 -267 -601 -450 20 -46 26 -44 13 3 -31 117 60 210 270 276 83 26 191 53
252 62 18 3 43 8 55 10 20 4 50 9 111 19 17 3 50 8 75 11 25 3 91 14 148 24
l103 19 108 80 c60 45 113 81 119 81 6 0 12 4 14 9 10 28 309 182 418 216 107
33 207 82 375 185 50 30 92 57 95 60 3 3 28 20 55 39 64 44 274 212 299 240
19 21 19 30 1 12z"/>
<path d="M5355 4179 c-223 -170 -311 -228 -453 -301 -134 -69 -224 -126 -333
-208 -80 -62 -199 -184 -199 -206 0 -22 -58 -62 -190 -129 -185 -94 -207 -105
-285 -156 -76 -50 -158 -124 -197 -179 -64 -90 -58 -214 15 -292 18 -19 27
-27 21 -19 -46 67 -59 158 -32 221 17 39 98 130 116 130 7 0 12 4 12 8 0 5 12
15 28 22 15 8 34 20 42 26 16 13 158 85 245 124 227 101 285 138 309 194 19
45 102 126 216 212 72 55 227 154 240 154 5 0 10 4 10 8 0 4 12 13 28 19 29
13 104 55 112 64 3 3 27 22 54 42 109 82 445 399 421 396 -6 -1 -86 -59 -180
-130z"/>
<path d="M6080 4256 c-135 -31 -207 -65 -285 -135 -44 -39 -46 -41 -93 -130
-48 -90 -65 -168 -65 -301 -1 -120 19 -213 64 -303 11 -21 17 -43 13 -49 -4
-6 -3 -8 2 -5 6 3 22 -14 38 -39 50 -80 56 -53 15 69 -46 133 -49 150 -54 284
-4 124 14 212 61 303 83 158 236 262 423 285 25 3 47 7 49 10 21 20 -96 28
-168 11z"/>
<path d="M3420 3998 c-333 -349 -576 -587 -615 -604 -44 -18 -59 -21 -160 -29
-135 -11 -165 -12 -165 -2 0 6 -5 6 -12 0 -7 -6 -47 -11 -88 -12 -85 -2 -196
-9 -255 -16 -22 -2 -67 -7 -100 -10 -33 -3 -82 -10 -110 -15 -27 -5 -66 -12
-85 -15 -68 -11 -236 -55 -304 -80 -37 -14 -73 -22 -79 -18 -6 3 -7 1 -3 -5 4
-7 2 -12 -5 -12 -11 0 -244 -114 -264 -130 -5 -4 -46 -27 -90 -50 -44 -24 -95
-52 -115 -63 -58 -33 -223 -114 -247 -121 -52 -16 -86 -10 -111 20 -21 26 -22
26 -11 4 20 -39 37 -52 77 -55 43 -2 160 32 275 81 45 20 87 37 92 38 12 4 78
33 205 93 228 107 448 174 650 198 14 2 45 6 70 9 67 9 117 14 195 21 141 12
430 29 502 29 28 1 49 4 46 9 -2 4 9 7 26 7 66 0 137 39 215 119 138 141 282
315 460 551 55 74 103 137 106 140 8 7 41 60 38 60 -2 0 -64 -64 -138 -142z"/>
<path d="M8375 4030 c-10 -31 4 -96 29 -132 30 -45 78 -75 158 -99 53 -16 66
-24 58 -34 -8 -9 -4 -16 12 -28 50 -33 158 -145 191 -197 76 -122 106 -311 67
-425 -34 -100 -204 -307 -243 -297 -7 2 -9 0 -5 -4 11 -11 -176 -144 -202
-144 -14 0 -12 -28 3 -33 36 -12 321 114 413 183 112 84 211 235 233 351 15
84 -5 209 -45 294 -14 27 -12 26 20 -10 20 -22 46 -64 58 -92 16 -39 25 -50
34 -43 9 8 9 26 -2 81 -27 145 -98 242 -214 296 -33 15 -57 30 -54 35 3 4 -2
5 -9 2 -8 -3 -36 5 -63 19 l-47 24 48 6 c94 13 187 85 201 157 5 23 3 30 -9
30 -8 0 -20 -7 -27 -16 -19 -22 -90 -62 -125 -70 -16 -3 -69 -9 -116 -11 -150
-8 -283 47 -319 132 -21 49 -35 56 -45 25z"/>
<path d="M5819 3658 c-4 -46 5 -225 15 -273 2 -11 7 -40 11 -64 12 -74 93
-244 177 -372 149 -228 469 -461 733 -536 70 -20 65 -19 219 -43 117 -18 166
-21 310 -17 94 3 185 8 201 11 32 6 67 12 130 22 22 3 92 19 155 36 63 17 120
31 125 32 86 16 494 226 535 276 3 3 24 20 48 39 23 18 39 37 36 42 -3 6 -10
6 -17 1 -7 -5 -34 -22 -62 -37 -109 -61 -172 -92 -225 -110 -30 -11 -59 -22
-65 -26 -8 -6 -229 -73 -275 -84 -60 -15 -226 -45 -275 -50 -33 -4 -69 -9 -80
-11 -27 -6 -371 -5 -420 1 -43 5 -124 17 -140 21 -5 1 -26 4 -45 8 -53 9 -71
13 -120 27 -25 7 -53 14 -63 16 -86 16 -341 160 -427 242 -24 22 -46 41 -50
41 -4 0 -40 35 -82 78 -71 73 -166 205 -160 224 1 4 -2 8 -7 8 -26 0 -119 245
-146 385 -8 42 -17 98 -18 113 0 6 -4 12 -9 12 -4 0 -9 -6 -9 -12z"/>
<path d="M5648 3255 c-1 -1 -34 -6 -73 -9 -134 -12 -168 -17 -244 -32 -41 -9
-95 -22 -118 -30 -24 -8 -49 -12 -55 -8 -7 4 -8 3 -4 -4 4 -7 1 -12 -6 -12 -7
0 -40 -16 -73 -36 -33 -21 -65 -37 -72 -37 -7 0 -11 -3 -10 -6 1 -3 -28 -36
-64 -72 -78 -79 -139 -168 -208 -306 -59 -119 -104 -168 -166 -185 -56 -15
-49 -28 10 -17 44 8 86 27 115 51 16 14 78 91 95 118 44 73 78 120 86 120 5 0
9 6 9 14 0 7 39 51 88 97 106 103 212 159 347 185 11 2 31 6 45 9 22 4 89 11
190 20 87 7 185 17 188 20 2 1 -9 28 -24 58 -25 50 -45 72 -56 62z"/>
<path d="M256 3190 c-44 -21 -92 -51 -107 -66 -33 -32 -53 -85 -44 -115 8 -25
61 -86 87 -100 19 -10 19 -9 2 22 -20 40 -20 95 0 142 16 39 85 111 128 133
27 14 36 24 20 24 -4 0 -43 -18 -86 -40z"/>
<path d="M555 3152 c-154 -85 -223 -175 -188 -244 13 -26 104 -88 130 -88 7 0
1 12 -12 26 -77 83 -36 211 100 311 41 30 30 28 -30 -5z"/>
<path d="M4130 2978 c-145 -64 -258 -139 -269 -178 -23 -79 -5 -141 58 -197
46 -42 59 -42 30 -1 -14 19 -24 51 -27 84 -8 93 46 170 178 255 72 47 83 60
30 37z"/>
<path d="M4393 2929 c1 -4 -16 -21 -38 -39 -193 -154 -233 -274 -122 -364 23
-18 57 -38 76 -45 l34 -11 -31 30 c-100 95 -79 235 55 377 36 39 52 61 41 60
-9 0 -16 -4 -15 -8z"/>
</g>
</svg>
